<?xml version="1.0" standalone="no"?>
<!DOCTYPE svg PUBLIC "-//W3C//DTD SVG 20010904//EN"
 "http://www.w3.org/TR/2001/REC-SVG-20010904/DTD/svg10.dtd">
<svg version="1.0" xmlns="http://www.w3.org/2000/svg"
 width="595.000000pt" height="595.000000pt" viewBox="0 0 595.000000 595.000000"
 preserveAspectRatio="xMidYMid meet">
<metadata>
Created by potrace 1.16, written by Peter Selinger 2001-2019
</metadata>
<g transform="translate(0.000000,595.000000) scale(0.100000,-0.100000)"
fill="#000000" stroke="none">
<path d="M2750 5424 c-14 -2 -65 -9 -114 -15 -137 -17 -299 -56 -313 -76 -9
-12 -13 -68 -13 -194 l0 -176 -82 -33 c-196 -77 -413 -202 -563 -323 l-69 -56
-56 32 c-30 17 -100 57 -155 89 -55 32 -107 58 -116 58 -19 0 -122 -107 -210
-217 -188 -236 -326 -496 -424 -795 -33 -99 -37 -119 -26 -132 8 -9 73 -50
146 -91 189 -108 170 -82 151 -213 -21 -148 -22 -463 0 -608 13 -89 14 -109 2
-115 -7 -4 -78 -45 -158 -91 -106 -61 -146 -89 -148 -104 -4 -30 77 -270 136
-401 63 -142 172 -325 266 -450 101 -135 235 -283 254 -283 13 0 235 120 308
167 20 13 27 9 85 -40 140 -119 377 -257 561 -328 l88 -34 0 -182 c0 -147 3
-184 15 -196 17 -18 99 -37 281 -69 107 -18 169 -22 364 -22 143 -1 270 4 325
12 129 19 282 51 322 67 l33 14 0 188 0 188 68 23 c175 61 451 218 585 334 33
29 64 48 72 44 8 -3 80 -44 161 -91 81 -47 154 -85 162 -83 21 4 179 181 262
293 83 112 165 245 223 361 84 169 187 454 174 486 -2 8 -75 54 -162 104
l-157 89 5 40 c3 22 11 78 18 125 18 129 16 414 -5 549 -9 62 -15 116 -12 118
3 3 74 45 158 93 l153 88 -2 40 c-5 107 -153 460 -278 661 -116 187 -335 451
-375 451 -10 0 -85 -39 -167 -86 -81 -47 -151 -86 -154 -87 -3 -1 -39 25 -80
57 -161 129 -400 265 -572 327 l-67 24 0 186 c0 137 -3 189 -12 197 -19 15
-227 59 -366 76 -112 14 -447 20 -522 10z m503 -569 c753 -112 1386 -682 1562
-1407 46 -188 58 -312 52 -538 -5 -215 -16 -298 -64 -464 -170 -596 -678
-1110 -1277 -1290 -158 -48 -278 -67 -457 -73 -543 -19 -1056 183 -1440 567
-359 359 -549 819 -549 1332 0 605 261 1126 760 1515 235 184 542 312 850 357
133 19 435 20 563 1z"/>
<path d="M2785 4809 c-402 -39 -766 -204 -1064 -485 -283 -266 -477 -608 -550
-969 -69 -341 -35 -749 89 -1060 208 -523 678 -947 1202 -1085 196 -52 307
-64 573 -64 212 -1 252 2 342 22 377 83 723 295 991 607 330 385 477 824 442
1319 -34 484 -219 885 -560 1210 -404 384 -908 558 -1465 505z m530 -139 c538
-115 967 -445 1204 -925 96 -194 137 -322 167 -529 23 -155 15 -450 -15 -591
-72 -334 -227 -619 -472 -864 -360 -360 -790 -527 -1309 -508 -449 17 -822
187 -1162 530 -258 260 -422 577 -469 907 -24 169 3 467 62 690 187 703 713
1194 1398 1305 132 22 466 13 596 -15z"/>
<path d="M2600 4069 c-128 -16 -241 -42 -265 -61 -47 -37 -58 -164 -21 -236
12 -22 16 -59 16 -131 0 -55 4 -102 9 -106 6 -3 -14 -39 -43 -79 -59 -82 -98
-170 -117 -264 -13 -60 -14 -62 -48 -68 -103 -17 -195 -70 -245 -142 -115
-167 -76 -387 90 -498 80 -53 137 -64 346 -64 159 0 168 1 168 19 0 46 -20 51
-208 51 -165 0 -180 2 -228 24 -111 52 -168 142 -168 266 0 117 50 196 156
249 74 37 150 41 233 12 48 -17 57 -18 70 -5 8 8 12 21 9 28 -5 14 -91 56
-113 56 -14 0 -14 2 4 79 19 77 81 200 133 260 l37 43 93 -7 92 -7 0 -403 c0
-430 -1 -435 -51 -481 -41 -37 -42 -59 -4 -147 19 -45 36 -88 37 -96 2 -8 -32
-35 -82 -66 -120 -73 -123 -58 80 -384 91 -145 179 -280 196 -299 27 -32 33
-35 48 -23 9 7 16 21 16 30 0 9 -26 130 -59 269 l-58 254 74 36 c47 24 73 42
73 53 0 22 -93 328 -109 357 -7 13 -24 27 -38 33 -14 5 -27 18 -30 29 -3 11
-9 20 -14 20 -5 0 -9 179 -9 410 l0 410 34 0 c18 0 53 -11 77 -24 24 -13 82
-36 129 -52 73 -23 106 -27 240 -31 89 -3 174 0 200 6 57 13 71 0 31 -28 -63
-45 -29 -74 53 -46 61 21 107 16 157 -18 64 -43 75 -81 66 -217 -2 -29 1 -35
18 -35 13 0 26 13 39 39 l19 39 52 -6 c106 -11 207 -83 255 -182 36 -75 35
-189 -3 -267 -34 -70 -101 -130 -173 -158 -52 -19 -77 -20 -523 -20 -257 0
-470 -3 -474 -6 -3 -3 -1 -19 5 -35 l10 -30 482 3 481 3 59 29 c74 36 156 118
192 192 26 53 29 69 29 159 0 90 -3 106 -29 160 -60 121 -179 205 -303 213
-63 4 -63 4 -73 41 -24 87 -97 156 -178 166 -62 8 -73 15 -97 63 -11 22 -46
67 -78 100 -55 59 -57 62 -57 117 0 37 7 70 21 97 12 23 23 67 26 97 4 47 0
65 -24 111 -33 65 -51 73 -208 95 -108 16 -415 18 -525 4z m140 -54 c0 -12
-15 -15 -77 -14 -88 1 -85 6 8 18 35 5 65 9 67 10 1 0 2 -6 2 -14z m336 -6
c51 -6 105 -14 120 -19 26 -8 25 -8 -16 -9 -55 -1 -374 19 -379 24 -23 24 86
25 275 4z m-396 -26 c0 -5 -19 -16 -41 -27 -34 -15 -54 -17 -112 -12 -122 11
-149 24 -82 39 35 8 235 7 235 0z m355 -10 c76 -5 84 -7 55 -14 -42 -9 -274
-29 -342 -29 -26 0 -48 4 -48 9 0 5 24 17 53 28 54 21 77 22 282 6z m244 -26
c42 -52 15 -177 -38 -177 -15 0 -19 12 -24 68 -4 37 -9 77 -13 89 -4 15 -1 22
13 26 34 9 51 7 62 -6z m-874 -15 c6 -4 11 -46 11 -94 1 -68 -2 -88 -12 -88
-29 0 -67 131 -51 174 7 17 35 21 52 8z m786 -13 c6 -12 12 -51 13 -88 l1 -66
-60 -12 c-81 -16 -311 -37 -330 -29 -13 5 -15 22 -13 93 l3 88 108 8 c60 4
132 11 160 16 87 15 105 13 118 -10z m-626 -8 l40 -7 3 -88 3 -89 -83 7 c-46
4 -86 10 -91 15 -9 9 -11 156 -3 170 6 9 41 7 131 -8z m225 -96 l0 -96 -62 3
-63 3 -3 79 c-2 44 -1 85 2 93 4 9 25 13 66 13 l60 0 0 -95z m449 -144 c19
-12 6 -41 -19 -41 -13 0 -20 7 -20 18 0 31 14 39 39 23z"/>
<path d="M3730 2373 c0 -16 32 -108 41 -117 6 -6 13 -6 19 0 15 15 -22 118
-43 122 -10 2 -17 -1 -17 -5z"/>
<path d="M3214 2346 c-9 -23 25 -116 42 -116 18 0 18 16 -2 73 -18 52 -31 66
-40 43z"/>
<path d="M2240 2293 c0 -16 32 -108 41 -117 6 -6 13 -6 19 0 14 14 -24 118
-44 122 -9 2 -16 -1 -16 -5z"/>
<path d="M2986 2281 c-9 -14 25 -102 38 -98 18 6 18 32 2 71 -15 35 -29 45
-40 27z"/>
<path d="M3480 2282 c0 -15 33 -107 41 -116 6 -6 13 -6 20 1 17 17 -20 123
-43 123 -10 0 -18 -4 -18 -8z"/>
<path d="M3676 2152 c-9 -16 35 -132 50 -132 19 0 17 35 -5 90 -18 44 -34 59
-45 42z"/>
<path d="M3410 2106 c0 -24 31 -96 41 -96 17 0 20 25 6 65 -14 40 -47 61 -47
31z"/>
<path d="M3820 2100 c0 -20 42 -120 50 -120 19 0 20 22 4 75 -13 40 -23 55
-36 55 -10 0 -18 -4 -18 -10z"/>
<path d="M3226 2081 c-10 -15 25 -101 41 -101 12 0 14 7 10 28 -13 66 -36 98
-51 73z"/>
<path d="M2898 1984 c-12 -11 38 -139 55 -142 22 -4 21 10 -6 82 -21 56 -35
74 -49 60z"/>
<path d="M3104 1955 c14 -74 44 -122 60 -96 6 10 -22 99 -37 119 -18 23 -29
13 -23 -23z"/>
<path d="M3540 1903 c0 -13 41 -118 50 -126 19 -20 21 19 5 74 -14 44 -23 59
-37 59 -10 0 -18 -3 -18 -7z"/>
<path d="M3770 1842 c0 -10 6 -27 14 -38 21 -28 40 -7 27 29 -12 30 -41 37
-41 9z"/>
<path d="M2460 1839 c0 -28 44 -129 56 -129 18 0 17 23 -5 85 -10 29 -25 51
-34 53 -10 2 -17 -2 -17 -9z"/>
<path d="M3360 1817 c0 -24 42 -137 50 -137 19 0 21 23 4 73 -18 55 -31 77
-45 77 -5 0 -9 -6 -9 -13z"/>
<path d="M3090 1747 c0 -9 9 -37 20 -63 16 -36 24 -44 32 -36 16 16 -12 106
-35 110 -10 2 -17 -3 -17 -11z"/>
<path d="M2920 1620 c0 -25 31 -81 42 -77 14 4 12 41 -3 70 -10 18 -39 24 -39
7z"/>
</g>
</svg>
